# xmcd
#
# Track frame offsets: 
#        150
#        18218
#        35015
#        52023
#        69778
#        88258
#        106040
#        120940
#        140865
#        159753
#        179230
#        196618
#        213923
#        234448
#        249715
#
# Disc length: 3539 seconds
#
# Revision: 5
# Processed by: cddbd v1.5.2PL0 Copyright (c) Steve Scherf et al.
# Submitted via: ExactAudioCopyFreeDBPlugin 1.0
#
DISCID=c60dd10f
DTITLE=木村好夫 - 日本結他天皇發燒天碟
DYEAR=1997
DGENRE=Instrumental
TTITLE0=宗右衛門町Blues
TTITLE1=恋人对酒
TTITLE2=城崎Blues
TTITLE3=千曲川
TTITLE4=恋之町札幌
TTITLE5=二人的大阪
TTITLE6=别离爱人
TTITLE7=银座恋爱物語
TTITLE8=恋情
TTITLE9=女人的性情
TTITLE10=想酒
TTITLE11=北酒場
TTITLE12=面影- G Man
TTITLE13=思案橋Blues
TTITLE14=你的怨曲
EXTD=
EXTT0=
EXTT1=
EXTT2=
EXTT3=
EXTT4=
EXTT5=
EXTT6=
EXTT7=
EXTT8=
EXTT9=
EXTT10=
EXTT11=
EXTT12=
EXTT13=
EXTT14=
PLAYORDER=
